<svg width="23" height="26" viewBox="0 0 23 26" fill="none" xmlns="http://www.w3.org/2000/svg">
<path d="M22.3498 20.2619C21.9566 21.1703 21.4912 22.0064 20.952 22.7752C20.2169 23.8231 19.6151 24.5485 19.1513 24.9514C18.4323 25.6126 17.6619 25.9512 16.837 25.9705C16.2448 25.9705 15.5306 25.802 14.6993 25.4601C13.8653 25.1199 13.0988 24.9514 12.3979 24.9514C11.6629 24.9514 10.8745 25.1199 10.0313 25.4601C9.18685 25.802 8.50654 25.9801 7.98638 25.9978C7.19534 26.0315 6.40687 25.6832 5.61983 24.9514C5.11749 24.5132 4.48919 23.7621 3.73647 22.6981C2.9289 21.5618 2.26497 20.2442 1.74482 18.742C1.18776 17.1195 0.908508 15.5483 0.908508 14.0272C0.908508 12.2848 1.28502 10.782 2.03916 9.52263C2.63184 8.51107 3.42032 7.71311 4.40717 7.12735C5.394 6.54156 6.4603 6.24303 7.6086 6.22396C8.23692 6.22396 9.06086 6.4183 10.0848 6.80027C11.1058 7.18352 11.7614 7.37786 12.0488 7.37786C12.2637 7.37786 12.992 7.15061 14.2267 6.69755C15.3942 6.2774 16.3796 6.1034 17.1869 6.17195C19.3744 6.34848 21.0178 7.21079 22.1107 8.76433C20.1543 9.94971 19.1866 11.6099 19.2058 13.7398C19.2235 15.3988 19.8253 16.7793 21.0081 17.8755C21.5442 18.3842 22.1428 18.7774 22.8088 19.0566C22.6644 19.4755 22.5119 19.8767 22.3498 20.2619V20.2619ZM17.333 0.520154C17.333 1.82044 16.8579 3.03453 15.911 4.15828C14.7683 5.4942 13.3862 6.26614 11.8874 6.14433C11.8673 5.98086 11.8572 5.81632 11.8572 5.65162C11.8572 4.40334 12.4006 3.06742 13.3657 1.97515C13.8475 1.4221 14.4602 0.962256 15.2033 0.595426C15.9447 0.234071 16.6461 0.0342302 17.3057 0C17.3249 0.173823 17.333 0.347667 17.333 0.520132V0.520154Z" fill="#1B1B1A"/>
</svg>
