<svg width="103" height="20" viewBox="0 0 103 20" fill="none" xmlns="http://www.w3.org/2000/svg">
<path d="M12.6188 3.76176L6.72542 7.52351L12.6188 11.2853L6.72542 15.047L0.832001 11.2539L6.72542 7.49216L0.832001 3.76176L6.72542 0L12.6188 3.76176ZM6.69407 16.2382L12.5875 12.4765L18.4809 16.2382L12.5875 20L6.69407 16.2382ZM12.6188 11.2539L18.5123 7.49216L12.6188 3.76176L18.4809 0L24.3743 3.76176L18.4809 7.52351L24.3743 11.2853L18.4809 15.047L12.6188 11.2539Z" fill="#1B1B1A"/>
<path d="M28.9824 3.76176H33.7473C36.7881 3.76176 39.2959 5.51724 39.2959 9.52978V10.3762C39.2959 14.4201 36.9448 16.2382 33.8414 16.2382H28.9824V3.76176ZM31.647 6.01881V13.9498H33.6846C35.4088 13.9498 36.5686 12.8213 36.5686 10.3135V9.65517C36.5686 7.14734 35.3461 6.01881 33.5906 6.01881H31.647ZM40.7066 6.1442H42.8382L43.1831 8.4953C43.5906 6.89655 44.6251 6.05016 46.5059 6.05016H47.1642V8.74608H46.0671C43.9041 8.74608 43.3711 9.49843 43.3711 11.6301V16.2696H40.7379V6.1442H40.7066ZM47.6972 11.4107V11.1285C47.6972 7.74295 49.8602 5.89342 52.8069 5.89342C55.8163 5.89342 57.9166 7.74295 57.9166 11.1285V11.4107C57.9166 14.7335 55.879 16.5204 52.8069 16.5204C49.5467 16.489 47.6972 14.7335 47.6972 11.4107ZM55.2207 11.3793V11.1285C55.2207 9.24765 54.2802 8.11912 52.7755 8.11912C51.3022 8.11912 50.3304 9.15361 50.3304 11.1285V11.3793C50.3304 13.1975 51.2708 14.232 52.7755 14.232C54.2802 14.2006 55.2207 13.1975 55.2207 11.3793ZM59.2959 6.1442H61.4903L61.741 8.05643C62.274 6.77116 63.4025 5.89342 65.0639 5.89342C67.6345 5.89342 69.3273 7.74295 69.3273 11.1599V11.442C69.3273 14.7649 67.4464 16.5204 65.0639 16.5204C63.4652 16.5204 62.368 15.7994 61.8351 14.6395V19.7492H59.2646L59.2959 6.1442ZM66.6627 11.3793V11.1599C66.6627 9.1536 65.6282 8.15047 64.2489 8.15047C62.7755 8.15047 61.8037 9.279 61.8037 11.1599V11.348C61.8037 13.1348 62.7442 14.2633 64.2175 14.2633C65.7222 14.232 66.6627 13.2602 66.6627 11.3793ZM73.2144 14.3887L72.995 16.2382H70.7379V2.75862H73.3084V7.93103C73.8727 6.61442 75.0012 5.89342 76.6 5.89342C79.0138 5.92476 80.8006 7.58621 80.8006 10.9404V11.2539C80.8006 14.6082 79.1078 16.5204 76.5373 16.5204C74.8445 16.489 73.7473 15.7053 73.2144 14.3887ZM78.1047 11.2539V11.0031C78.1047 9.1536 77.1016 8.11912 75.6909 8.11912C74.2489 8.11912 73.2458 9.279 73.2458 11.0345V11.2539C73.2458 13.1348 74.2175 14.232 75.6595 14.232C77.1956 14.232 78.1047 13.2602 78.1047 11.2539ZM81.9291 11.4107V11.1285C81.9291 7.74295 84.0921 5.89342 87.0389 5.89342C90.0483 5.89342 92.1486 7.74295 92.1486 11.1285V11.4107C92.1486 14.7335 90.0796 16.5204 87.0389 16.5204C83.7787 16.489 81.9291 14.7335 81.9291 11.4107ZM89.484 11.3793V11.1285C89.484 9.24765 88.5436 8.11912 87.0389 8.11912C85.5655 8.11912 84.5937 9.15361 84.5937 11.1285V11.3793C84.5937 13.1975 85.5342 14.232 87.0389 14.232C88.5436 14.2006 89.484 13.1975 89.484 11.3793ZM95.5968 11.0031L92.0545 6.1442H95.0953L97.1329 9.18495L99.2019 6.1442H102.211L98.6063 10.9718L102.399 16.2382H99.4213L97.1016 12.884L94.8445 16.2382H91.7411L95.5968 11.0031Z" fill="#1B1B1A"/>
</svg>
