<svg width="94" height="18" viewBox="0 0 94 18" fill="none" xmlns="http://www.w3.org/2000/svg">
<path d="M6.70048 17.7226H3.19608V8.98656H0.808823V6.14229H3.19599V4.11839C3.19599 1.72007 4.25184 0 7.74674 0C8.48592 0 9.6464 0.148989 9.6464 0.148989V2.79005H8.42752C7.18557 2.79005 6.70066 3.16782 6.70066 4.21223V6.14229H9.59989L9.34172 8.98656H6.70057L6.70048 17.7226ZM14.7414 5.915C14.6903 5.915 14.6378 5.91686 14.5858 5.91816C11.3363 5.91816 9.8496 8.36243 9.8496 11.8321C9.8496 16.203 11.7781 17.9524 14.6112 17.9524C16.2321 17.9524 17.2971 17.2701 17.9444 15.9969V17.7238H21.2775V6.1435H17.9444V7.92439C17.4158 6.77861 16.3211 5.92858 14.7414 5.915ZM15.5889 8.65138C16.9537 8.65138 17.7729 9.60335 17.7729 11.2226L17.776 12.8764C17.776 13.9678 17.0995 15.2446 15.5889 15.2446C13.2667 15.2446 13.3287 12.7371 13.3287 11.902C13.3287 9.09268 14.566 8.65138 15.5889 8.65138ZM22.6237 11.9342C22.6237 10.527 22.5563 5.92253 28.5553 5.92253C30.9634 5.92253 31.9689 6.68821 31.9689 6.68821L31.1607 9.19488C31.1607 9.19488 30.1565 8.6419 28.848 8.6419C27.172 8.6419 26.1026 9.61349 26.1026 11.3229L26.1044 12.5487C26.1044 14.1913 27.1363 15.2878 28.8514 15.2878C30.0435 15.2878 31.1422 14.7296 31.1422 14.7296L31.9484 17.1839C31.9484 17.1839 31.029 17.9544 28.5721 17.9544C22.8602 17.9544 22.6237 13.8233 22.6237 11.9342H22.6237ZM51.5126 5.91816C54.7621 5.91816 56.2723 8.36243 56.2723 11.8321C56.2723 16.203 54.3437 17.9524 51.5106 17.9524C49.8897 17.9524 48.6915 17.2702 48.0442 15.9969V17.7238L44.7529 17.7225V0.352104L48.2474 0.0473378V7.7675C48.7517 6.41683 50.4092 5.91816 51.5127 5.91816H51.5126ZM50.5329 8.65138C49.1681 8.65138 48.2474 9.60335 48.2474 11.2226L48.2441 12.8764C48.2421 13.9678 48.8817 15.2446 50.5329 15.2446C52.8551 15.2446 52.7931 12.7371 52.7931 11.902C52.7931 9.09268 51.5559 8.65138 50.5329 8.65138ZM38.0321 5.92774C34.3464 5.92774 32.4006 7.93722 32.4006 11.5083V12.1718C32.4006 16.8067 35.1331 18 38.3908 18C41.5572 18 42.9905 17.1143 42.9905 17.1143L42.3366 14.7558C42.3366 14.7558 40.6506 15.4731 38.8098 15.4731C36.9014 15.4731 36.0806 14.9867 35.8702 13.1528H43.2698V11.2606C43.2698 7.38693 41.0861 5.92764 38.032 5.92764L38.0321 5.92774ZM38.1209 8.28942C39.3967 8.28942 40.2234 9.07175 40.178 10.8861H35.8767C35.9513 8.97652 36.8428 8.28951 38.1209 8.28951V8.28942ZM63.2401 5.91183C59.4552 5.91183 57.4626 8.04473 57.4626 11.867C57.4626 17.1114 60.8974 17.9555 63.2464 17.9555C66.6852 17.9555 68.9731 16.1042 68.9731 11.9146C68.9731 7.55406 66.4006 5.91183 63.2401 5.91183ZM63.1925 8.66087C64.8567 8.66087 65.5162 9.90644 65.5162 11.3243V12.5432C65.5162 14.2608 64.5934 15.2542 63.1861 15.2542C61.87 15.2542 60.945 14.3249 60.945 12.5432V11.3243C60.945 9.42404 62.0457 8.66087 63.1925 8.66087ZM75.9346 5.91183C72.1497 5.91183 70.1572 8.04473 70.1572 11.867C70.1572 17.1114 73.5919 17.9555 75.9409 17.9555C79.3797 17.9555 81.6676 16.1042 81.6676 11.9146C81.6676 7.55406 79.0951 5.91183 75.9346 5.91183ZM75.887 8.66087C77.5513 8.66087 78.2106 9.90644 78.2106 11.3243V12.5432C78.2106 14.2608 77.2879 15.2542 75.8807 15.2542C74.5645 15.2542 73.6395 14.3249 73.6395 12.5432V11.3243C73.6395 9.42404 74.7402 8.66087 75.887 8.66087ZM82.9881 17.7226V0.352104L86.4927 0.0474308V11.6902L89.9697 6.14239H93.6708L90.0437 11.8883L93.8104 17.7226H90.0988L86.4927 12.0575V17.7226H82.9881Z" fill="#1B1B1A"/>
</svg>
