<svg width="28" height="26" viewBox="0 0 28 26" fill="none" xmlns="http://www.w3.org/2000/svg">
<path d="M9.31857 20.9352C9.31857 21.0427 9.19491 21.1287 9.039 21.1287C8.86159 21.1448 8.73793 21.0588 8.73793 20.9352C8.73793 20.8276 8.86159 20.7416 9.0175 20.7416C9.17879 20.7255 9.31857 20.8115 9.31857 20.9352ZM7.64655 20.6932C7.60892 20.8008 7.71644 20.9244 7.87773 20.9567C8.01751 21.0104 8.1788 20.9567 8.21106 20.8491C8.24332 20.7416 8.14117 20.618 7.97988 20.5696C7.8401 20.5319 7.68419 20.5857 7.64655 20.6932ZM10.0229 20.6018C9.86695 20.6395 9.75942 20.7416 9.77555 20.8653C9.79168 20.9728 9.93146 21.0427 10.0928 21.0051C10.2487 20.9674 10.3562 20.8653 10.3401 20.7577C10.3239 20.6556 10.1788 20.5857 10.0229 20.6018ZM13.5604 0C6.10357 0 0.399353 5.6612 0.399353 13.1181C0.399353 19.0804 4.15198 24.1824 9.51211 25.9781C10.2003 26.1017 10.4422 25.677 10.4422 25.3276C10.4422 24.9942 10.4261 23.1556 10.4261 22.0265C10.4261 22.0265 6.6627 22.833 5.87239 20.4244C5.87239 20.4244 5.25949 18.8599 4.37779 18.4567C4.37779 18.4567 3.14662 17.6126 4.46381 17.6288C4.46381 17.6288 5.80249 17.7363 6.53904 19.0158C7.71644 21.0911 9.68953 20.4943 10.4583 20.1395C10.582 19.2793 10.9314 18.6825 11.3185 18.3277C8.31321 17.9943 5.281 17.5589 5.281 12.3869C5.281 10.9084 5.68959 10.1665 6.5498 9.22029C6.41001 8.87083 5.95303 7.42999 6.68958 5.56981C7.81322 5.22035 10.3992 7.0214 10.3992 7.0214C11.4744 6.72033 12.6303 6.56441 13.7755 6.56441C14.9206 6.56441 16.0765 6.72033 17.1518 7.0214C17.1518 7.0214 19.7378 5.21497 20.8614 5.56981C21.5979 7.43537 21.141 8.87083 21.0012 9.22029C21.8614 10.1719 22.3883 10.9138 22.3883 12.3869C22.3883 17.575 19.2216 17.989 16.2163 18.3277C16.7109 18.7524 17.1303 19.5588 17.1303 20.8223C17.1303 22.6341 17.1141 24.876 17.1141 25.3168C17.1141 25.6663 17.3615 26.091 18.0442 25.9673C23.4205 24.1824 27.0656 19.0804 27.0656 13.1181C27.0656 5.6612 21.0173 0 13.5604 0ZM5.62508 18.5427C5.55519 18.5965 5.57132 18.7201 5.66271 18.8223C5.74873 18.9083 5.87239 18.9459 5.94228 18.8761C6.01217 18.8223 5.99604 18.6986 5.90464 18.5965C5.81862 18.5105 5.69497 18.4728 5.62508 18.5427ZM5.04444 18.1072C5.00681 18.1771 5.06057 18.2632 5.1681 18.3169C5.25412 18.3707 5.36164 18.3546 5.39928 18.2793C5.43691 18.2094 5.38315 18.1234 5.27562 18.0696C5.1681 18.0374 5.08208 18.0535 5.04444 18.1072ZM6.78635 20.0212C6.70033 20.0911 6.73259 20.2524 6.85624 20.3545C6.9799 20.4782 7.13581 20.4943 7.2057 20.4083C7.27559 20.3384 7.24333 20.1771 7.13581 20.075C7.01753 19.9513 6.85624 19.9352 6.78635 20.0212ZM6.17346 19.2309C6.08744 19.2846 6.08744 19.4244 6.17346 19.5481C6.25948 19.6717 6.40464 19.7255 6.47453 19.6717C6.56055 19.6018 6.56055 19.4621 6.47453 19.3384C6.39926 19.2148 6.25948 19.161 6.17346 19.2309Z" fill="#1B1B1A"/>
</svg>
