<svg width="73" height="24" viewBox="0 0 73 24" fill="none" xmlns="http://www.w3.org/2000/svg">
<path d="M31.2005 12.63C31.2005 16.0829 28.4993 18.6273 25.1843 18.6273C21.8693 18.6273 19.1681 16.0829 19.1681 12.63C19.1681 9.15278 21.8693 6.63273 25.1843 6.63273C28.4993 6.63273 31.2005 9.15278 31.2005 12.63ZM28.5669 12.63C28.5669 10.4723 27.0014 8.99596 25.1843 8.99596C23.3673 8.99596 21.8017 10.4723 21.8017 12.63C21.8017 14.7661 23.3673 16.2641 25.1843 16.2641C27.0014 16.2641 28.5669 14.7634 28.5669 12.63Z" fill="#1B1B1A"/>
<path d="M44.1794 12.63C44.1794 16.0829 41.4782 18.6273 38.1632 18.6273C34.8481 18.6273 32.1469 16.0829 32.1469 12.63C32.1469 9.15549 34.8481 6.63273 38.1632 6.63273C41.4782 6.63273 44.1794 9.15278 44.1794 12.63ZM41.5458 12.63C41.5458 10.4723 39.9802 8.99596 38.1632 8.99596C36.3461 8.99596 34.7805 10.4723 34.7805 12.63C34.7805 14.7661 36.3461 16.2641 38.1632 16.2641C39.9802 16.2641 41.5458 14.7634 41.5458 12.63Z" fill="#1B1B1A"/>
<path d="M56.6174 6.99505V17.7621C56.6174 22.1911 54.0054 24 50.9175 24C48.0108 24 46.2614 22.0559 45.6016 20.466L47.8945 19.5115C48.3028 20.4876 49.3033 21.6395 50.9148 21.6395C52.8914 21.6395 54.1163 20.42 54.1163 18.1244V17.2618H54.0243C53.4349 17.9892 52.2992 18.6246 50.8661 18.6246C47.8675 18.6246 45.1203 16.0126 45.1203 12.6517C45.1203 9.26635 47.8675 6.63273 50.8661 6.63273C52.2965 6.63273 53.4322 7.26815 54.0243 7.97387H54.1163V6.99776H56.6174V6.99505ZM54.3028 12.6517C54.3028 10.5399 52.8941 8.99596 51.1014 8.99596C49.2844 8.99596 47.762 10.5399 47.762 12.6517C47.762 14.7418 49.2844 16.2641 51.1014 16.2641C52.8941 16.2641 54.3028 14.7418 54.3028 12.6517Z" fill="#1B1B1A"/>
<path d="M60.7409 0.684097V18.2596H58.1721V0.684097H60.7409Z" fill="#1B1B1A"/>
<path d="M70.7508 14.6039L72.7949 15.9667C72.1352 16.9428 70.5453 18.6246 67.7981 18.6246C64.3911 18.6246 61.8468 15.991 61.8468 12.6273C61.8468 9.06084 64.4128 6.63001 67.5034 6.63001C70.6156 6.63001 72.1379 9.1068 72.6354 10.4452L72.9085 11.1266L64.8914 14.447C65.5052 15.6503 66.4596 16.2641 67.7981 16.2641C69.1392 16.2641 70.0694 15.6043 70.7508 14.6039ZM64.4587 12.4461L69.8179 10.2208C69.5232 9.47183 68.6363 8.94998 67.5926 8.94998C66.2541 8.94998 64.3911 10.1316 64.4587 12.4461Z" fill="#1B1B1A"/>
<path d="M9.4448 11.0699V8.52546H18.0189C18.1028 8.9689 18.146 9.49347 18.146 10.0613C18.146 11.9703 17.6242 14.3308 15.9423 16.0126C14.3064 17.7161 12.2163 18.6246 9.4475 18.6246C4.31546 18.6246 0 14.4443 0 9.3123C0 4.18026 4.31546 0 9.4475 0C12.2866 0 14.3091 1.11402 15.8288 2.56602L14.0333 4.36142C12.9437 3.33934 11.4673 2.54439 9.4448 2.54439C5.69716 2.54439 2.76611 5.56467 2.76611 9.3123C2.76611 13.0599 5.69716 16.0802 9.4448 16.0802C11.8756 16.0802 13.26 15.1041 14.1469 14.2172C14.8662 13.498 15.3393 12.4705 15.5259 11.0671L9.4448 11.0699Z" fill="#1B1B1A"/>
</svg>
