<svg width="67" height="18" viewBox="0 0 67 18" fill="none" xmlns="http://www.w3.org/2000/svg">
<path d="M9.22379 16.8398C8.22188 17.0157 7.20234 17.0685 6.14767 17.209L2.9308 7.78715V17.6133C1.92889 17.7188 1.01484 17.8594 0.0656128 18V0H2.73756L6.39373 10.213V0H9.22379V16.8398ZM14.7609 6.5918C15.8508 6.5918 17.5208 6.53905 18.5227 6.53905V9.35149C17.2746 9.35149 15.8157 9.35149 14.7609 9.40424V13.5879C16.4133 13.4825 18.0657 13.3417 19.7355 13.289V15.9958L11.9484 16.6112V0H19.7355V2.8125H14.7609V6.5918ZM30.1945 2.81257H27.2765V15.75C26.3273 15.75 25.3781 15.75 24.4642 15.7851V2.81257H21.5462V0H30.1946L30.1945 2.81257ZM34.7648 6.39849H38.6144V9.21093H34.7648V15.5919H32.0048V0H39.8625V2.8125H34.7648V6.39849ZM44.4327 13.1309C46.0324 13.1659 47.6495 13.2892 49.214 13.3769V16.1543C46.7004 15.996 44.1867 15.838 41.6203 15.7851V0H44.4327V13.1309ZM51.587 16.3477C52.4835 16.4005 53.4327 16.4532 54.3468 16.5585V0H51.587V16.3477ZM66.6692 0L63.1007 8.56057L66.6692 18C65.6144 17.8594 64.5597 17.666 63.505 17.4902L61.4836 12.2872L59.4271 17.0685C58.4074 16.8925 57.423 16.8398 56.4037 16.6992L60.0247 8.45501L56.7551 0H59.7784L61.6241 4.72853L63.593 0H66.6692Z" fill="#1B1B1A"/>
</svg>
