<svg width="81" height="24" viewBox="0 0 81 24" fill="none" xmlns="http://www.w3.org/2000/svg">
<path d="M12.8107 0C6.18328 0 0.810455 5.37268 0.810455 12.0001C0.810455 18.6278 6.18328 24 12.8107 24C19.4388 24 24.811 18.6278 24.811 12.0001C24.811 5.37311 19.4388 0.000573192 12.8105 0.000573192L12.8107 0ZM18.3139 17.3075C18.2627 17.3915 18.1954 17.4644 18.116 17.5223C18.0365 17.5802 17.9464 17.6219 17.8509 17.6449C17.7553 17.6679 17.6561 17.6719 17.559 17.6565C17.4619 17.6412 17.3688 17.6068 17.285 17.5555C14.4675 15.8344 10.9206 15.4447 6.74343 16.399C6.55001 16.443 6.34704 16.4084 6.17912 16.3028C6.01121 16.1972 5.8921 16.0293 5.84796 15.8359C5.82597 15.7401 5.82309 15.641 5.83948 15.5441C5.85587 15.4472 5.8912 15.3546 5.94346 15.2714C5.99572 15.1882 6.06388 15.1161 6.14403 15.0593C6.22417 15.0025 6.31474 14.962 6.41055 14.9403C10.9818 13.8959 14.9028 14.3456 18.066 16.2787C18.4185 16.495 18.5303 16.955 18.3139 17.3075ZM19.7827 14.0401C19.5119 14.4803 18.9358 14.6193 18.4959 14.3484C15.2702 12.3658 10.3533 11.7916 6.53794 12.9497C6.04313 13.0992 5.52052 12.8203 5.37035 12.3264C5.29869 12.0889 5.32413 11.8327 5.44109 11.6139C5.55805 11.3952 5.75698 11.2318 5.99427 11.1595C10.3524 9.83713 15.7704 10.4777 19.4746 12.754C19.9145 13.0248 20.0535 13.6009 19.7827 14.0402V14.0401ZM19.9088 10.6376C16.0412 8.34038 9.66012 8.12916 5.96747 9.24989C5.3745 9.42973 4.74743 9.09499 4.56773 8.50202C4.48133 8.21714 4.5116 7.9096 4.6519 7.64703C4.7922 7.38446 5.03104 7.18836 5.31589 7.10185C9.5548 5.81504 16.6015 6.06366 21.0543 8.70708C21.1812 8.78216 21.2921 8.88153 21.3805 8.99951C21.469 9.11749 21.5333 9.25176 21.5697 9.39463C21.6062 9.5375 21.6141 9.68616 21.5931 9.8321C21.572 9.97803 21.5224 10.1184 21.447 10.2451C21.1317 10.7785 20.441 10.9543 19.9094 10.6376H19.9088ZM33.4591 11.0778C31.387 10.5837 31.0187 10.2369 31.0187 9.50826C31.0187 8.81986 31.6664 8.35657 32.6308 8.35657C33.5651 8.35657 34.4908 8.70837 35.4624 9.4326C35.491 9.45452 35.5283 9.46326 35.5641 9.45753C35.5821 9.45495 35.5994 9.4487 35.615 9.43919C35.6305 9.42968 35.6439 9.4171 35.6544 9.40222L36.6661 7.97612C36.6861 7.94784 36.6945 7.91301 36.6897 7.87873C36.6849 7.84444 36.6673 7.81327 36.6403 7.79155C35.4839 6.86398 34.1827 6.41302 32.6609 6.41302C30.424 6.41302 28.8606 7.75558 28.8606 9.67649C28.8606 11.7364 30.2091 12.4658 32.5391 13.0288C34.5209 13.4855 34.8562 13.8681 34.8562 14.5519C34.8562 15.31 34.1799 15.7814 33.0908 15.7814C31.8814 15.7814 30.894 15.373 29.7906 14.4187C29.7631 14.3954 29.7277 14.3836 29.6918 14.3857C29.6545 14.3886 29.6216 14.4058 29.5986 14.433L28.4637 15.7829C28.4164 15.8402 28.4221 15.9233 28.4766 15.972C29.7606 17.1184 31.3397 17.7231 33.0449 17.7231C35.4552 17.7231 37.0129 16.4062 37.0129 14.3671C37.0172 12.6465 35.9869 11.6936 33.4634 11.0797L33.4591 11.0778ZM42.4668 9.03437C41.4222 9.03437 40.5652 9.44593 39.8573 10.2892V9.34003C39.8575 9.30414 39.8434 9.26966 39.8181 9.24416C39.7929 9.21866 39.7585 9.20423 39.7226 9.20404H37.8669C37.7924 9.20404 37.7322 9.26508 37.7322 9.34003V19.8869C37.7322 19.9614 37.7924 20.023 37.8669 20.023H39.7226C39.7972 20.023 39.8573 19.9614 39.8573 19.8869V16.5581C40.5652 17.3505 41.4222 17.7389 42.4668 17.7389C44.4085 17.7389 46.3745 16.2443 46.3745 13.3871C46.3774 10.5293 44.4114 9.03423 42.4682 9.03423L42.4668 9.03437ZM44.2165 13.3871C44.2165 14.8414 43.3209 15.8574 42.0369 15.8574C40.7687 15.8574 39.8115 14.7955 39.8115 13.3871C39.8115 11.9784 40.7687 10.9169 42.0369 10.9169C43.2994 10.9167 44.2165 11.9554 44.2165 13.3869V13.3871ZM51.4115 9.03437C48.9109 9.03437 46.952 10.9597 46.952 13.4181C46.952 15.8502 48.898 17.7546 51.3814 17.7546C53.8905 17.7546 55.8551 15.8359 55.8551 13.3871C55.8551 10.9465 53.9034 9.03466 51.4115 9.03466V9.03437ZM51.4115 15.8717C50.0817 15.8717 49.0786 14.8027 49.0786 13.3863C49.0786 11.9635 50.0473 10.9311 51.3814 10.9311C52.7198 10.9311 53.7286 11.9996 53.7286 13.4174C53.7286 14.84 52.7542 15.8717 51.4115 15.8717ZM61.1944 9.20404H59.1524V7.11676C59.1525 7.09899 59.1491 7.08139 59.1424 7.06495C59.1356 7.04851 59.1257 7.03355 59.1132 7.02094C59.1007 7.00832 59.0858 6.99829 59.0695 6.99143C59.0531 6.98456 59.0355 6.98099 59.0177 6.98091H57.162C57.0875 6.98091 57.0259 7.04196 57.0259 7.11676V9.20404H56.1346C56.0601 9.20404 55.9999 9.26508 55.9999 9.34003V10.9345C55.9999 11.0093 56.0601 11.0705 56.1346 11.0705H57.0259V15.1968C57.0259 16.8633 57.8556 17.7088 59.4935 17.7088C60.1584 17.7088 60.7101 17.5712 61.2303 17.276C61.2732 17.2531 61.299 17.2072 61.299 17.1585V15.6396C61.299 15.5937 61.2747 15.5493 61.2346 15.5249C61.215 15.5124 61.1926 15.5053 61.1694 15.5043C61.1463 15.5033 61.1233 15.5084 61.1027 15.5192C60.7459 15.6983 60.4006 15.7814 60.0137 15.7814C59.419 15.7814 59.1524 15.5106 59.1524 14.9059V11.0712H61.1944C61.2689 11.0712 61.3291 11.0102 61.3291 10.9352V9.34089C61.3297 9.3231 61.3267 9.30537 61.3203 9.28878C61.3138 9.27218 61.3041 9.25708 61.2916 9.24436C61.2792 9.23165 61.2642 9.22159 61.2478 9.21481C61.2313 9.20803 61.2137 9.20465 61.1959 9.2049L61.1944 9.20404ZM68.3078 9.21221V8.95585C68.3078 8.20167 68.5972 7.86535 69.2449 7.86535C69.6318 7.86535 69.9428 7.94216 70.291 8.05823C70.334 8.0717 70.3784 8.06496 70.4128 8.03931C70.4303 8.02672 70.4444 8.01013 70.4542 7.99093C70.4639 7.97174 70.4689 7.95049 70.4687 7.92897V6.36559C70.469 6.33639 70.4598 6.30788 70.4425 6.28437C70.4252 6.26087 70.4007 6.24365 70.3727 6.23533C70.0058 6.12599 69.5358 6.01379 68.8308 6.01379C67.1184 6.01379 66.2113 6.97876 66.2113 8.80338V9.19601H65.32C65.2455 9.19601 65.1839 9.25706 65.1839 9.33186V10.9345C65.1839 11.0093 65.2455 11.0705 65.32 11.0705H66.2113V17.4336C66.2113 17.5096 66.2729 17.5698 66.3474 17.5698H68.2017C68.2777 17.5698 68.3378 17.5096 68.3378 17.4336V11.0709H70.0703L72.7242 17.4336C72.4233 18.1014 72.1266 18.2347 71.7225 18.2347C71.3958 18.2347 71.0505 18.1372 70.6994 17.9438C70.6661 17.927 70.6277 17.9234 70.5919 17.9338C70.5561 17.9467 70.526 17.9725 70.5117 18.0068L69.8826 19.3868C69.8525 19.4527 69.8783 19.5287 69.9414 19.5631C70.5977 19.9184 71.1895 20.0703 71.9217 20.0703C73.2917 20.0703 74.0497 19.4312 74.716 17.7145L77.9345 9.39792C77.9429 9.37736 77.946 9.35503 77.9435 9.33297C77.941 9.31091 77.933 9.28983 77.9202 9.27168C77.9081 9.2535 77.8917 9.2386 77.8724 9.2283C77.8532 9.218 77.8317 9.21262 77.8099 9.21264H75.8782C75.8194 9.21264 75.7679 9.24946 75.7492 9.30377L73.7703 14.9546L71.6036 9.30005C71.5939 9.27442 71.5767 9.25234 71.5542 9.23673C71.5316 9.22112 71.5049 9.21272 71.4775 9.21264H68.3078V9.21221ZM64.1836 9.20404H62.3279C62.2534 9.20404 62.1918 9.26508 62.1918 9.34003V17.4336C62.1918 17.5096 62.2534 17.5698 62.3279 17.5698H64.1836C64.2581 17.5698 64.3198 17.5096 64.3198 17.4336V9.3406C64.3198 9.32272 64.3163 9.30501 64.3095 9.28848C64.3027 9.27196 64.2926 9.25694 64.28 9.24431C64.2673 9.23167 64.2523 9.22166 64.2358 9.21484C64.2192 9.20803 64.2015 9.20455 64.1836 9.20461V9.20404ZM63.2665 5.51855C62.5314 5.51855 61.9353 6.11353 61.9353 6.8485C61.9353 7.02332 61.9697 7.19642 62.0366 7.35793C62.1035 7.51943 62.2016 7.66618 62.3252 7.78978C62.4488 7.91339 62.5956 8.01143 62.7571 8.07832C62.9186 8.1452 63.0917 8.17962 63.2665 8.1796C64.0016 8.1796 64.5963 7.58391 64.5963 6.8485C64.5963 6.11367 64.0002 5.51855 63.2665 5.51855ZM79.5194 11.8065C78.7857 11.8065 78.214 11.2168 78.214 10.5007C78.214 9.78468 78.7929 9.18828 79.5266 9.18828C80.2603 9.18828 80.832 9.7778 80.832 10.4933C80.832 11.2094 80.2531 11.8065 79.5194 11.8065ZM79.5266 9.3181C78.8574 9.3181 78.3515 9.84974 78.3515 10.5007C78.3515 11.1515 78.8545 11.6759 79.5194 11.6759C80.1886 11.6759 80.6944 11.1447 80.6944 10.4933C80.6944 9.84257 80.1915 9.3181 79.5266 9.3181ZM79.816 10.6276L80.1857 11.1446H79.8733L79.5409 10.6703H79.2557V11.1446H78.9949V9.77408H79.6054C79.9249 9.77408 80.1341 9.93701 80.1341 10.2113C80.1356 10.436 80.0052 10.5733 79.8175 10.6276H79.816ZM79.5953 10.0092H79.2557V10.4427H79.5953C79.7644 10.4427 79.8662 10.3597 79.8662 10.2258C79.8662 10.0847 79.7644 10.0092 79.5953 10.0092Z" fill="#1B1B1A"/>
</svg>
